<svg width="46" height="46" viewBox="0 0 46 46" fill="none" xmlns="http://www.w3.org/2000/svg">
<rect x="3" y="3" width="40" height="40" rx="20" fill="#D1FADF"/>
<g clip-path="url(#clip0_225_6598)">
<path d="M20.5001 23L22.1667 24.6666L25.9167 20.9166M19.1116 16.1822C19.7814 16.1288 20.4173 15.8653 20.9288 15.4295C22.1224 14.4123 23.8778 14.4123 25.0714 15.4295C25.5828 15.8653 26.2187 16.1288 26.8886 16.1822C28.4518 16.3069 29.6931 17.5482 29.8178 19.1114C29.8713 19.7813 30.1347 20.4172 30.5706 20.9287C31.5877 22.1222 31.5877 23.8777 30.5706 25.0712C30.1347 25.5827 29.8713 26.2186 29.8178 26.8885C29.6931 28.4517 28.4518 29.693 26.8886 29.8177C26.2187 29.8712 25.5828 30.1346 25.0714 30.5704C23.8778 31.5876 22.1224 31.5876 20.9288 30.5704C20.4173 30.1346 19.7814 29.8712 19.1116 29.8177C17.5484 29.693 16.3071 28.4517 16.1823 26.8885C16.1289 26.2186 15.8655 25.5827 15.4296 25.0712C14.4125 23.8777 14.4125 22.1222 15.4296 20.9287C15.8655 20.4172 16.1289 19.7813 16.1823 19.1114C16.3071 17.5482 17.5484 16.3069 19.1116 16.1822Z" stroke="#039855" stroke-width="1.66667" stroke-linecap="round" stroke-linejoin="round"/>
</g>
<rect x="3" y="3" width="40" height="40" rx="20" stroke="#ECFDF3" stroke-width="6"/>
<defs>
<clipPath id="clip0_225_6598">
<rect width="20" height="20" fill="white" transform="translate(13 13)"/>
</clipPath>
</defs>
</svg>
