<svg width="118" height="32" viewBox="0 0 118 32" fill="none" xmlns="http://www.w3.org/2000/svg">
<path d="M57.8227 16.2623H51.3527L50.2547 18.9778H47L53.0708 5H56.3255L62.2957 18.9778H58.9207L57.8227 16.2623ZM56.8045 13.7262L54.6074 8.29512L52.3906 13.7262H56.8035H56.8045Z" fill="#F4EBFF"/>
<path d="M69.8648 18.3784C69.0664 18.8377 68.0679 19.1176 67.0694 19.1176C65.1522 19.1176 63.6944 18.0196 63.6944 15.8028V10.83H62.1972V8.71383H63.6944V5.75879H66.75V8.71383H69.6657V10.8508H66.75V15.2833C66.75 16.1823 67.1295 16.541 67.7879 16.5213C68.1871 16.5213 68.6672 16.3814 69.226 16.1222L69.8648 18.3784Z" fill="#F4EBFF"/>
<path d="M78.3721 18.3784C77.5738 18.8377 76.5753 19.1176 75.5768 19.1176C73.6596 19.1176 72.2018 18.0196 72.2018 15.8028V10.83H70.7046V8.71383H72.2018V5.75879H75.2574V8.71383H78.1731V10.8508H75.2574V15.2833C75.2574 16.1823 75.6369 16.541 76.2953 16.5213C76.6945 16.5213 77.1735 16.3814 77.7334 16.1222L78.3721 18.3784Z" fill="#F4EBFF"/>
<path d="M90.0347 14.5451H82.3267C82.6865 15.9034 83.7244 16.7018 85.1024 16.7018C86.1206 16.7018 87.0796 16.3026 87.8179 15.5633L89.4354 17.2005C88.3571 18.398 86.779 19.0979 84.8421 19.0979C81.408 19.0979 79.2307 16.9019 79.2307 13.6461C79.2307 10.3904 81.4869 8.13525 84.7623 8.13525C88.5364 8.13525 90.2939 10.631 90.0336 14.5451H90.0347ZM87.1595 12.7285C87.1201 11.3111 86.2014 10.3925 84.783 10.3925C83.3646 10.3925 82.5071 11.3111 82.2666 12.7285H87.1584H87.1595Z" fill="#F4EBFF"/>
<path d="M98.7007 8.11475V11.0107C96.5046 10.8106 95.1464 11.9895 95.1464 13.806V18.9779H92.071V8.23502H95.1464V10.1719C95.8856 8.85402 97.1029 8.13548 98.7007 8.11475Z" fill="#F4EBFF"/>
<path d="M107.008 8.11475V11.0107C104.811 10.8106 103.454 11.9895 103.454 13.806V18.9779H100.378V8.23502H103.454V10.1719C104.193 8.85402 105.41 8.13548 107.008 8.11475Z" fill="#F4EBFF"/>
<path d="M114.576 18.9779V17.7202C113.857 18.6191 112.699 19.1179 111.201 19.1179C108.904 19.1179 107.507 17.7202 107.507 15.7626C107.507 13.805 108.965 12.5473 111.6 12.5276H114.555V12.3275C114.555 11.189 113.796 10.5306 112.319 10.5306C111.361 10.5306 110.242 10.85 109.124 11.469L108.166 9.35275C109.764 8.55437 111.141 8.11475 113.019 8.11475C115.894 8.11475 117.552 9.55287 117.571 11.9687L117.591 18.9779H114.576ZM114.556 15.3033V14.3452H112.14C110.963 14.3452 110.383 14.705 110.383 15.5635C110.383 16.422 111.022 16.9218 112.061 16.9218C113.359 16.9218 114.377 16.223 114.556 15.3043V15.3033Z" fill="#F4EBFF"/>
<path d="M72.262 22.4668V26.1912H74.205V26.9699H71.4003V22.4678H72.262V22.4668Z" fill="#F4EBFF"/>
<path d="M80.7009 26.017H78.5018L78.1026 26.9688H77.2088L79.183 22.4668H80.0767L82.026 26.9688H81.1001L80.7009 26.017ZM80.3919 25.2777L79.607 23.3865L78.8097 25.2777H80.3919Z" fill="#F4EBFF"/>
<path d="M88.9792 23.5918C88.9792 24.0874 88.6837 24.4669 88.1943 24.5892C88.7926 24.6981 89.1524 25.1294 89.1524 25.7277C89.1524 26.4991 88.5157 26.9688 87.4861 26.9688H85.428V22.4668H87.4281C88.3861 22.4668 88.9782 22.8981 88.9782 23.5918H88.9792ZM88.0979 23.7463C88.0979 23.4052 87.8273 23.2061 87.3835 23.2123H86.2896V24.3051H87.3835C87.8273 24.3051 88.0979 24.0988 88.0979 23.7452V23.7463ZM88.2586 25.6178C88.2586 25.2508 87.9309 25.0258 87.3835 25.032H86.2896V26.2223H87.3835C87.9299 26.2285 88.2586 26.0035 88.2586 25.6178Z" fill="#F4EBFF"/>
<path d="M94.3242 23.2122C93.9187 23.2122 93.6554 23.3605 93.6554 23.6363C93.6554 24.5498 96.0744 24.0541 96.0671 25.6685C96.0671 26.5115 95.334 26.9998 94.3439 26.9998C93.6232 26.9998 92.9223 26.7106 92.4402 26.2792L92.801 25.5524C93.2634 25.964 93.8752 26.2149 94.3573 26.2149C94.8395 26.2149 95.1288 26.0345 95.1288 25.7193C95.1288 24.7799 92.7108 25.3139 92.7108 23.713C92.7108 22.9281 93.3858 22.4263 94.3957 22.4263C94.994 22.4263 95.5922 22.6191 96.0225 22.9022L95.6752 23.6487C95.193 23.3594 94.6715 23.2112 94.3242 23.2112V23.2122Z" fill="#F4EBFF"/>
<path d="M26.2864 6.3011C26.294 6.28442 26.2986 6.26623 26.3046 6.24955C26.8126 4.94704 26.1894 3.47167 24.8914 2.9349C23.7421 2.45878 22.4456 2.87728 21.7739 3.86743C21.6769 4.00996 21.5935 4.16462 21.5252 4.3299L20.8914 5.86137L17.51 14.0328L15.557 18.75C15.4888 18.9153 15.4388 19.0836 15.4069 19.2534C15.1825 20.4285 15.8042 21.6401 16.9536 22.1162C18.2257 22.6424 19.6738 22.0737 20.2606 20.8455V20.8516L20.297 20.7697C20.3046 20.753 20.3137 20.7379 20.3198 20.7212L23.7254 12.4937L26.288 6.3011H26.2864Z" fill="#F4EBFF"/>
<path d="M28.9582 17.6084C27.9195 17.6084 26.9824 18.2346 26.5851 19.1945L26.5548 19.1232L25.736 21.1035L23.2568 27.237L23.9331 29.9466H31.178L29.4191 25.8268L31.3433 21.1763C32.0469 19.4765 30.7974 17.6084 28.9582 17.6084Z" fill="#F4EBFF"/>
<path d="M14.9732 24.6728C14.3834 24.4287 13.7541 24.4211 13.1916 24.6045C12.5001 24.8305 11.9073 25.343 11.607 26.0678L10.623 28.4438C10.3713 29.0534 10.3728 29.7024 10.5744 30.2801C10.8186 30.9761 11.3568 31.5674 12.1089 31.8464C13.4251 32.3347 14.8883 31.6129 15.4251 30.315L16.6943 27.249C17.2022 26.0223 16.3 24.6728 14.9717 24.6728H14.9732Z" fill="#F4EBFF"/>
<path d="M17.3463 5.11106C17.3387 5.12168 17.3357 5.13532 17.3326 5.14594C17.3144 5.19598 17.2977 5.2445 17.2796 5.28999L14.8262 11.9269L13.7587 9.69183L6.13468 27.9846C5.64188 29.1718 4.47887 29.9482 3.19153 29.9482C0.897354 29.9482 -0.64625 27.5934 0.266568 25.4857L9.2886 4.71531C9.30225 4.6865 9.31741 4.65465 9.33106 4.61978C10.2894 2.49088 12.1089 0.926051 14.2727 0.266457C14.5866 0.17093 14.9035 0.0966308 15.228 0.0405273C15.4145 0.0647883 15.6055 0.104212 15.8027 0.157283C15.8057 0.157283 15.8102 0.160316 15.8133 0.160316C17.4843 0.484806 18.3364 2.39081 17.3463 5.10803V5.11106Z" fill="#F4EBFF"/>
<path d="M15.8012 0.158754C15.3463 0.0738408 14.8277 0.105683 14.2712 0.270961V0.267928L14.2212 0.02077C14.5381 -0.0110725 14.8732 -0.00803985 15.225 0.0419983C15.4115 0.0662593 15.6025 0.105683 15.7997 0.158754H15.8012Z" fill="white"/>
<path d="M15.8118 0.163252L11.181 6.1087C11.181 6.1087 8.83371 5.75995 9.2886 4.71673C9.30225 4.68792 9.31741 4.65607 9.33106 4.6212C9.78292 3.59617 11.3402 0.307301 14.2227 0.0222349C14.5396 -0.00960762 14.8747 -0.006575 15.2265 0.0434632C15.413 0.0677241 15.604 0.107148 15.8012 0.160219C15.8042 0.160219 15.8087 0.163252 15.8118 0.163252Z" fill="#F4EBFF"/>
</svg>
