<svg width="118" height="32" viewBox="0 0 118 32" fill="none" xmlns="http://www.w3.org/2000/svg">
<path d="M57.8227 16.2623H51.3527L50.2547 18.9778H47L53.0708 5H56.3255L62.2957 18.9778H58.9207L57.8227 16.2623ZM56.8045 13.7262L54.6074 8.29512L52.3906 13.7262H56.8035H56.8045Z" fill="#7F56D9"/>
<path d="M69.8648 18.3785C69.0664 18.8379 68.0679 19.1178 67.0694 19.1178C65.1522 19.1178 63.6944 18.0198 63.6944 15.803V10.8302H62.1972V8.71401H63.6944V5.75897H66.75V8.71401H69.6657V10.851H66.75V15.2835C66.75 16.1825 67.1295 16.5412 67.7879 16.5215C68.1871 16.5215 68.6672 16.3816 69.226 16.1223L69.8648 18.3785Z" fill="#7F56D9"/>
<path d="M78.3721 18.3785C77.5738 18.8379 76.5753 19.1178 75.5768 19.1178C73.6596 19.1178 72.2018 18.0198 72.2018 15.803V10.8302H70.7046V8.71401H72.2018V5.75897H75.2574V8.71401H78.1731V10.851H75.2574V15.2835C75.2574 16.1825 75.6369 16.5412 76.2953 16.5215C76.6945 16.5215 77.1735 16.3816 77.7334 16.1223L78.3721 18.3785Z" fill="#7F56D9"/>
<path d="M90.0347 14.5453H82.3267C82.6865 15.9036 83.7244 16.7019 85.1024 16.7019C86.1206 16.7019 87.0796 16.3027 87.8179 15.5635L89.4354 17.2007C88.3571 18.3982 86.779 19.0981 84.8421 19.0981C81.408 19.0981 79.2307 16.902 79.2307 13.6463C79.2307 10.3906 81.4869 8.13544 84.7623 8.13544C88.5364 8.13544 90.2939 10.6311 90.0336 14.5453H90.0347ZM87.1595 12.7287C87.1201 11.3113 86.2014 10.3927 84.783 10.3927C83.3646 10.3927 82.5071 11.3113 82.2666 12.7287H87.1584H87.1595Z" fill="#7F56D9"/>
<path d="M98.7007 8.11469V11.0106C96.5047 10.8105 95.1464 11.9894 95.1464 13.806V18.9778H92.0711V8.23496H95.1464V10.1718C95.8857 8.85396 97.1029 8.13542 98.7007 8.11469Z" fill="#7F56D9"/>
<path d="M107.008 8.11469V11.0106C104.811 10.8105 103.454 11.9894 103.454 13.806V18.9778H100.378V8.23496H103.454V10.1718C104.193 8.85396 105.41 8.13542 107.008 8.11469Z" fill="#7F56D9"/>
<path d="M114.576 18.9778V17.7201C113.857 18.6191 112.699 19.1178 111.201 19.1178C108.904 19.1178 107.507 17.7201 107.507 15.7625C107.507 13.8049 108.965 12.5472 111.6 12.5275H114.555V12.3274C114.555 11.189 113.796 10.5306 112.319 10.5306C111.361 10.5306 110.242 10.8499 109.124 11.4689L108.166 9.35269C109.764 8.55431 111.141 8.11469 113.019 8.11469C115.894 8.11469 117.552 9.5528 117.572 11.9687L117.591 18.9778H114.576ZM114.556 15.3032V14.3451H112.14C110.963 14.3451 110.383 14.7049 110.383 15.5635C110.383 16.422 111.022 16.9217 112.061 16.9217C113.359 16.9217 114.377 16.2229 114.556 15.3042V15.3032Z" fill="#7F56D9"/>
<path d="M72.262 22.4669V26.1912H74.205V26.9699H71.4003V22.4679H72.262V22.4669Z" fill="#7F56D9"/>
<path d="M80.7009 26.017H78.5018L78.1026 26.9689H77.2088L79.183 22.4669H80.0767L82.026 26.9689H81.1001L80.7009 26.017ZM80.3919 25.2778L79.607 23.3865L78.8097 25.2778H80.3919Z" fill="#7F56D9"/>
<path d="M88.9792 23.5918C88.9792 24.0875 88.6837 24.467 88.1943 24.5893C88.7925 24.6982 89.1523 25.1295 89.1523 25.7278C89.1523 26.4992 88.5157 26.9689 87.4861 26.9689H85.4279V22.4669H87.428C88.3861 22.4669 88.9781 22.8982 88.9781 23.5918H88.9792ZM88.0979 23.7463C88.0979 23.4052 87.8272 23.2061 87.3835 23.2124H86.2896V24.3052H87.3835C87.8272 24.3052 88.0979 24.0989 88.0979 23.7453V23.7463ZM88.2586 25.6179C88.2586 25.2508 87.9309 25.0258 87.3835 25.032H86.2896V26.2223H87.3835C87.9299 26.2286 88.2586 26.0036 88.2586 25.6179Z" fill="#7F56D9"/>
<path d="M94.3242 23.2124C93.9187 23.2124 93.6554 23.3607 93.6554 23.6365C93.6554 24.5499 96.0744 24.0543 96.0671 25.6687C96.0671 26.5117 95.334 27 94.3439 27C93.6232 27 92.9223 26.7107 92.4402 26.2794L92.801 25.5526C93.2634 25.9642 93.8752 26.2151 94.3573 26.2151C94.8395 26.2151 95.1288 26.0347 95.1288 25.7195C95.1288 24.7801 92.7108 25.3141 92.7108 23.7132C92.7108 22.9283 93.3858 22.4265 94.3957 22.4265C94.994 22.4265 95.5922 22.6193 96.0225 22.9024L95.6752 23.6489C95.193 23.3596 94.6715 23.2114 94.3242 23.2114V23.2124Z" fill="#7F56D9"/>
<path d="M26.2864 6.30135C26.294 6.28467 26.2986 6.26647 26.3046 6.24979C26.8126 4.94728 26.1894 3.47192 24.8914 2.93514C23.7421 2.45902 22.4456 2.87752 21.7739 3.86767C21.6769 4.0102 21.5935 4.16487 21.5252 4.33015L20.8914 5.86162L17.51 14.033L15.557 18.7502C15.4888 18.9155 15.4388 19.0838 15.4069 19.2537C15.1825 20.4288 15.8042 21.6403 16.9536 22.1164C18.2257 22.6426 19.6738 22.074 20.2606 20.8458V20.8518L20.297 20.77C20.3046 20.7533 20.3137 20.7381 20.3198 20.7214L23.7254 12.494L26.288 6.30135H26.2864Z" fill="#7F56D9"/>
<path d="M28.9582 17.6084C27.9195 17.6084 26.9824 18.2346 26.5851 19.1945L26.5548 19.1232L25.736 21.1035L23.2568 27.237L23.9331 29.9466H31.178L29.4191 25.8268L31.3433 21.1763C32.0469 19.4765 30.7974 17.6084 28.9582 17.6084Z" fill="#7F56D9"/>
<path d="M14.9732 24.6729C14.3834 24.4288 13.7541 24.4212 13.1916 24.6047C12.5001 24.8306 11.9073 25.3431 11.607 26.0679L10.623 28.444C10.3713 29.0535 10.3728 29.7025 10.5744 30.2802C10.8186 30.9762 11.3568 31.5676 12.1089 31.8466C13.4251 32.3348 14.8883 31.613 15.4251 30.3151L16.6943 27.2491C17.2022 26.0224 16.3 24.6729 14.9717 24.6729H14.9732Z" fill="#7F56D9"/>
<path d="M17.3463 5.111C17.3387 5.12162 17.3357 5.13526 17.3326 5.14588C17.3144 5.19592 17.2977 5.24444 17.2796 5.28993L14.8262 11.9268L13.7587 9.69177L6.13468 27.9845C5.64188 29.1718 4.47887 29.9481 3.19153 29.9481C0.897354 29.9481 -0.64625 27.5933 0.266568 25.4856L9.2886 4.71525C9.30225 4.68644 9.31741 4.65459 9.33106 4.61972C10.2894 2.49082 12.1089 0.92599 14.2727 0.266396C14.5866 0.170869 14.9035 0.0965697 15.228 0.0404663C15.4145 0.0647272 15.6055 0.104151 15.8027 0.157222C15.8057 0.157222 15.8102 0.160255 15.8133 0.160255C17.4843 0.484745 18.3364 2.39074 17.3463 5.10797V5.111Z" fill="#7F56D9"/>
<path d="M15.8012 0.158754C15.3463 0.0738408 14.8277 0.105683 14.2712 0.270961V0.267928L14.2212 0.02077C14.5381 -0.0110725 14.8732 -0.00803985 15.225 0.0419983C15.4115 0.0662593 15.6025 0.105683 15.7996 0.158754H15.8012Z" fill="white"/>
<path d="M15.8118 0.163313L11.181 6.10876C11.181 6.10876 8.83371 5.76001 9.2886 4.71679C9.30225 4.68798 9.31741 4.65613 9.33106 4.62126C9.78292 3.59623 11.3402 0.307362 14.2227 0.0222959C14.5396 -0.00954658 14.8747 -0.00651397 15.2265 0.0435242C15.413 0.0677852 15.604 0.107209 15.8012 0.16028C15.8042 0.16028 15.8087 0.163313 15.8118 0.163313Z" fill="#7F56D9"/>
</svg>
