<svg width="48" height="48" viewBox="0 0 48 48" fill="none" xmlns="http://www.w3.org/2000/svg">
<rect x="0.1" y="0.1" width="47.8" height="47.8" rx="7.9" fill="#7F56D9"/>
<path d="M36.6499 12.5845C36.659 12.5644 36.6645 12.5425 36.6718 12.5224C37.2838 10.9532 36.533 9.17578 34.9693 8.52911C33.5846 7.95551 32.0228 8.45969 31.2135 9.65256C31.0966 9.82427 30.9961 10.0106 30.9139 10.2097L30.1503 12.0547L26.0767 21.8991L23.7238 27.5821C23.6416 27.7812 23.5814 27.984 23.543 28.1886C23.2726 29.6043 24.0216 31.0639 25.4063 31.6375C26.9389 32.2713 28.6835 31.5863 29.3904 30.1067V30.114L29.4343 30.0153C29.4434 29.9952 29.4543 29.977 29.4617 29.9569L33.5645 20.0449L36.6517 12.5845H36.6499Z" fill="white"/>
<path d="M39.8686 26.2065C38.6173 26.2065 37.4883 26.961 37.0097 28.1173L36.9732 28.0315L35.9867 30.4172L33 37.8064L33.8147 41.0708H42.5429L40.4239 36.1075L42.742 30.5049C43.5897 28.4571 42.0844 26.2065 39.8686 26.2065Z" fill="white"/>
<path d="M23.021 34.7174C22.3103 34.4233 21.5522 34.4141 20.8745 34.6352C20.0415 34.9074 19.3273 35.5248 18.9656 36.398L17.78 39.2605C17.4768 39.9948 17.4786 40.7767 17.7216 41.4727C18.0157 42.3112 18.6642 43.0236 19.5702 43.3597C21.1558 43.9479 22.9187 43.0784 23.5653 41.5147L25.0943 37.821C25.7063 36.3432 24.6194 34.7174 23.0191 34.7174H23.021Z" fill="white"/>
<path d="M25.8796 11.1505C25.8704 11.1633 25.8668 11.1797 25.8631 11.1925C25.8412 11.2528 25.8211 11.3113 25.7992 11.3661L22.8435 19.3617L21.5575 16.6691L12.3726 38.707C11.7789 40.1373 10.3778 41.0726 8.82687 41.0726C6.06301 41.0726 4.20337 38.2357 5.30308 35.6965L16.1722 10.6737C16.1887 10.639 16.2069 10.6007 16.2234 10.5586C17.3779 7.99389 19.57 6.10869 22.1767 5.31406C22.5549 5.19897 22.9367 5.10946 23.3276 5.04187C23.5523 5.0711 23.7825 5.11859 24.0199 5.18253C24.0236 5.18253 24.0291 5.18618 24.0327 5.18618C26.0458 5.57711 27.0724 7.87333 25.8796 11.1469V11.1505Z" fill="white"/>
<path d="M24.0182 5.1843C23.4702 5.082 22.8454 5.12036 22.175 5.31948V5.31582L22.1147 5.01806C22.4965 4.9797 22.9003 4.98336 23.3241 5.04364C23.5487 5.07287 23.7789 5.12036 24.0164 5.1843H24.0182Z" fill="white"/>
<path d="M24.0307 5.18978L18.4518 12.3525C18.4518 12.3525 15.624 11.9323 16.172 10.6755C16.1885 10.6408 16.2068 10.6024 16.2232 10.5604C16.7676 9.32554 18.6436 5.36332 22.1163 5.0199C22.4981 4.98153 22.9018 4.98519 23.3256 5.04547C23.5503 5.0747 23.7804 5.12219 24.0179 5.18613C24.0216 5.18613 24.0271 5.18978 24.0307 5.18978Z" fill="white"/>
<rect x="0.1" y="0.1" width="47.8" height="47.8" rx="7.9" stroke="#D0D5DD" stroke-width="0.2"/>
</svg>
