<svg width="90" height="28" viewBox="0 0 90 28" fill="none" xmlns="http://www.w3.org/2000/svg">
<path d="M13.7743 14.3339H5.53982L4.14233 17.79H0L7.72646 0H11.8688L19.4672 17.79H15.1718L13.7743 14.3339ZM12.4785 11.106L9.68216 4.1938L6.86078 11.106H12.4771H12.4785Z" fill="#7F56D9"/>
<path d="M29.1005 17.0272C28.0844 17.6118 26.8136 17.9681 25.5428 17.9681C23.1028 17.9681 21.2473 16.5706 21.2473 13.7492V7.42027H19.3418V4.7269H21.2473V0.965942H25.1363V4.7269H28.8471V7.44667H25.1363V13.0881C25.1363 14.2322 25.6193 14.6888 26.4573 14.6637C26.9653 14.6637 27.5763 14.4856 28.2876 14.1557L29.1005 17.0272Z" fill="#7F56D9"/>
<path d="M39.9281 17.0272C38.912 17.6118 37.6412 17.9681 36.3704 17.9681C33.9304 17.9681 32.075 16.5706 32.075 13.7492V7.42027H30.1694V4.7269H32.075V0.965942H35.9639V4.7269H39.6748V7.44667H35.9639V13.0881C35.9639 14.2322 36.4469 14.6888 37.2849 14.6637C37.793 14.6637 38.4026 14.4856 39.1152 14.1557L39.9281 17.0272Z" fill="#7F56D9"/>
<path d="M54.7716 12.1486H44.9614C45.4193 13.8773 46.7403 14.8934 48.4941 14.8934C49.79 14.8934 51.0106 14.3854 51.9502 13.4445L54.0088 15.5282C52.6364 17.0523 50.6279 17.9431 48.1629 17.9431C43.7922 17.9431 41.021 15.1481 41.021 11.0045C41.021 6.8608 43.8925 3.9906 48.0612 3.9906C52.8647 3.9906 55.1015 7.16696 54.7703 12.1486H54.7716ZM51.1122 9.83658C51.0621 8.03264 49.8929 6.86344 48.0876 6.86344C46.2824 6.86344 45.191 8.03264 44.8849 9.83658H51.1109H51.1122Z" fill="#7F56D9"/>
<path d="M65.801 3.96423V7.64997C63.006 7.39528 61.2773 8.89571 61.2773 11.2077V17.79H57.3633V4.11731H61.2773V6.58239C62.2182 4.90513 63.7675 3.99063 65.801 3.96423Z" fill="#7F56D9"/>
<path d="M76.3738 3.96423V7.64997C73.5775 7.39528 71.8501 8.89571 71.8501 11.2077V17.79H67.936V4.11731H71.8501V6.58239C72.791 4.90513 74.3402 3.99063 76.3738 3.96423Z" fill="#7F56D9"/>
<path d="M86.0061 17.79V16.1893C85.0915 17.3334 83.6175 17.9682 81.7106 17.9682C78.7877 17.9682 77.0088 16.1893 77.0088 13.6979C77.0088 11.2064 78.8642 9.60567 82.2187 9.5806H85.9797V9.32591C85.9797 7.87695 85.0137 7.03898 83.1332 7.03898C81.9139 7.03898 80.49 7.44543 79.0674 8.23325L77.8481 5.53988C79.8816 4.52376 81.6341 3.96423 84.024 3.96423C87.6833 3.96423 89.7934 5.79457 89.8185 8.86931L89.8436 17.79H86.0061ZM85.981 13.1133V11.8939H82.9062C81.4071 11.8939 80.6695 12.3518 80.6695 13.4445C80.6695 14.5371 81.4823 15.1732 82.8046 15.1732C84.4568 15.1732 85.7527 14.2838 85.981 13.1146V13.1133Z" fill="#7F56D9"/>
<path d="M32.1518 22.2306V26.9707H34.6248V27.9618H31.0552V22.2319H32.1518V22.2306Z" fill="#7F56D9"/>
<path d="M42.8923 26.749H40.0933L39.5853 27.9604H38.4478L40.9603 22.2306H42.0979L44.5788 27.9604H43.4003L42.8923 26.749ZM42.499 25.8081L41.5001 23.4011L40.4853 25.8081H42.499Z" fill="#7F56D9"/>
<path d="M53.428 23.6624C53.428 24.2932 53.0519 24.7762 52.429 24.9319C53.1904 25.0704 53.6483 25.6194 53.6483 26.3808C53.6483 27.3626 52.8381 27.9604 51.5277 27.9604H48.9082V22.2306H51.4538C52.6731 22.2306 53.4266 22.7796 53.4266 23.6624H53.428ZM52.3063 23.859C52.3063 23.4249 51.9618 23.1715 51.397 23.1794H50.0048V24.5703H51.397C51.9618 24.5703 52.3063 24.3077 52.3063 23.8577V23.859ZM52.5108 26.241C52.5108 25.7738 52.0938 25.4874 51.397 25.4954H50.0048V27.0103H51.397C52.0925 27.0182 52.5108 26.7319 52.5108 26.241Z" fill="#7F56D9"/>
<path d="M60.2308 23.1794C59.7148 23.1794 59.3796 23.3681 59.3796 23.7191C59.3796 24.8817 62.4583 24.2509 62.4491 26.3056C62.4491 27.3784 61.5161 28 60.2559 28C59.3387 28 58.4466 27.6318 57.833 27.0828L58.2922 26.1578C58.8808 26.6817 59.6594 27.001 60.273 27.001C60.8866 27.001 61.2548 26.7714 61.2548 26.3702C61.2548 25.1746 58.1774 25.8543 58.1774 23.8167C58.1774 22.8178 59.0365 22.1791 60.3218 22.1791C61.0833 22.1791 61.8447 22.4245 62.3923 22.7848L61.9503 23.7349C61.3366 23.3667 60.6729 23.178 60.2308 23.178V23.1794Z" fill="#7F56D9"/>
</svg>
